<svg xmlns="http://www.w3.org/2000/svg" xmlns:xlink="http://www.w3.org/1999/xlink" width="130" zoomAndPan="magnify" viewBox="0 0 97.5 30.000001" height="40" preserveAspectRatio="xMidYMid meet" version="1.0"><defs><g/><clipPath id="eb194b1ed2"><path d="M 1.332031 0 L 95.683594 0 L 95.683594 29.03125 L 1.332031 29.03125 Z M 1.332031 0 " clip-rule="nonzero"/></clipPath><clipPath id="f0085f79d4"><path d="M 90 3 L 95.683594 3 L 95.683594 27 L 90 27 Z M 90 3 " clip-rule="nonzero"/></clipPath></defs><g clip-path="url(#eb194b1ed2)"><path fill="#ffffff" d="M 1.332031 0 L 95.683594 0 L 95.683594 29.03125 L 1.332031 29.03125 Z M 1.332031 0 " fill-opacity="1" fill-rule="nonzero"/><path fill="#000000" d="M 1.332031 0 L 95.683594 0 L 95.683594 29.03125 L 1.332031 29.03125 Z M 1.332031 0 " fill-opacity="1" fill-rule="nonzero"/></g><g fill="#ff00ff" fill-opacity="1"><g transform="translate(70.181019, 26.225806)"><g><path d="M 9.625 -19.53125 L 3.484375 -0.671875 L 3.484375 -0.703125 C 3.367188 -0.421875 3.210938 -0.191406 3.015625 -0.015625 C 2.816406 0.160156 2.578125 0.25 2.296875 0.25 C 2.148438 0.25 2.003906 0.234375 1.859375 0.203125 C 1.722656 0.179688 1.582031 0.148438 1.4375 0.109375 L 1.453125 0.109375 C 0.390625 -0.222656 0 -0.820312 0.28125 -1.6875 L 6.671875 -21.125 C 6.765625 -21.425781 6.925781 -21.679688 7.15625 -21.890625 C 7.394531 -22.097656 7.675781 -22.21875 8 -22.25 C 8.3125 -22.3125 8.617188 -22.351562 8.921875 -22.375 C 9.222656 -22.40625 9.457031 -22.421875 9.625 -22.421875 C 9.789062 -22.421875 10.023438 -22.40625 10.328125 -22.375 C 10.628906 -22.351562 10.9375 -22.320312 11.25 -22.28125 C 11.507812 -22.238281 11.765625 -22.097656 12.015625 -21.859375 C 12.273438 -21.617188 12.46875 -21.375 12.59375 -21.125 C 13.644531 -17.90625 14.707031 -14.664062 15.78125 -11.40625 C 16.863281 -8.144531 17.925781 -4.90625 18.96875 -1.6875 C 19.226562 -0.820312 18.835938 -0.222656 17.796875 0.109375 C 17.640625 0.148438 17.5 0.179688 17.375 0.203125 C 17.257812 0.234375 17.128906 0.25 16.984375 0.25 C 16.710938 0.25 16.46875 0.160156 16.25 -0.015625 C 16.039062 -0.191406 15.890625 -0.421875 15.796875 -0.703125 L 15.796875 -0.671875 Z M 11.734375 -6.734375 C 11.734375 -6.140625 11.519531 -5.628906 11.09375 -5.203125 C 10.675781 -4.785156 10.164062 -4.578125 9.5625 -4.578125 C 8.96875 -4.578125 8.460938 -4.785156 8.046875 -5.203125 C 7.640625 -5.628906 7.4375 -6.140625 7.4375 -6.734375 C 7.4375 -7.335938 7.640625 -7.847656 8.046875 -8.265625 C 8.460938 -8.679688 8.96875 -8.890625 9.5625 -8.890625 C 10.164062 -8.890625 10.675781 -8.679688 11.09375 -8.265625 C 11.519531 -7.847656 11.734375 -7.335938 11.734375 -6.734375 Z M 11.734375 -6.734375 "/></g></g></g><g clip-path="url(#f0085f79d4)"><g fill="#ff00ff" fill-opacity="1"><g transform="translate(89.428079, 26.225806)"><g><path d="M 5.15625 -1.171875 C 5.15625 -0.273438 4.644531 0.171875 3.625 0.171875 C 2.570312 0.171875 2.046875 -0.273438 2.046875 -1.171875 L 2.046875 -15.65625 C 2.046875 -16.550781 2.570312 -17 3.625 -17 C 4.644531 -17 5.15625 -16.550781 5.15625 -15.65625 Z M 5.75 -20.546875 C 5.75 -19.941406 5.539062 -19.429688 5.125 -19.015625 C 4.71875 -18.609375 4.21875 -18.40625 3.625 -18.40625 C 3.019531 -18.40625 2.503906 -18.609375 2.078125 -19.015625 C 1.660156 -19.429688 1.453125 -19.941406 1.453125 -20.546875 C 1.453125 -21.160156 1.660156 -21.671875 2.078125 -22.078125 C 2.503906 -22.492188 3.019531 -22.703125 3.625 -22.703125 C 4.21875 -22.703125 4.71875 -22.492188 5.125 -22.078125 C 5.539062 -21.671875 5.75 -21.160156 5.75 -20.546875 Z M 5.75 -20.546875 "/></g></g></g></g><g fill="#00ffff" fill-opacity="1"><g transform="translate(69.128599, 26.225806)"><g><path d="M 9.625 -19.53125 L 3.484375 -0.671875 L 3.484375 -0.703125 C 3.367188 -0.421875 3.210938 -0.191406 3.015625 -0.015625 C 2.816406 0.160156 2.578125 0.25 2.296875 0.25 C 2.148438 0.25 2.003906 0.234375 1.859375 0.203125 C 1.722656 0.179688 1.582031 0.148438 1.4375 0.109375 L 1.453125 0.109375 C 0.390625 -0.222656 0 -0.820312 0.28125 -1.6875 L 6.671875 -21.125 C 6.765625 -21.425781 6.925781 -21.679688 7.15625 -21.890625 C 7.394531 -22.097656 7.675781 -22.21875 8 -22.25 C 8.3125 -22.3125 8.617188 -22.351562 8.921875 -22.375 C 9.222656 -22.40625 9.457031 -22.421875 9.625 -22.421875 C 9.789062 -22.421875 10.023438 -22.40625 10.328125 -22.375 C 10.628906 -22.351562 10.9375 -22.320312 11.25 -22.28125 C 11.507812 -22.238281 11.765625 -22.097656 12.015625 -21.859375 C 12.273438 -21.617188 12.46875 -21.375 12.59375 -21.125 C 13.644531 -17.90625 14.707031 -14.664062 15.78125 -11.40625 C 16.863281 -8.144531 17.925781 -4.90625 18.96875 -1.6875 C 19.226562 -0.820312 18.835938 -0.222656 17.796875 0.109375 C 17.640625 0.148438 17.5 0.179688 17.375 0.203125 C 17.257812 0.234375 17.128906 0.25 16.984375 0.25 C 16.710938 0.25 16.46875 0.160156 16.25 -0.015625 C 16.039062 -0.191406 15.890625 -0.421875 15.796875 -0.703125 L 15.796875 -0.671875 Z M 11.734375 -6.734375 C 11.734375 -6.140625 11.519531 -5.628906 11.09375 -5.203125 C 10.675781 -4.785156 10.164062 -4.578125 9.5625 -4.578125 C 8.96875 -4.578125 8.460938 -4.785156 8.046875 -5.203125 C 7.640625 -5.628906 7.4375 -6.140625 7.4375 -6.734375 C 7.4375 -7.335938 7.640625 -7.847656 8.046875 -8.265625 C 8.460938 -8.679688 8.96875 -8.890625 9.5625 -8.890625 C 10.164062 -8.890625 10.675781 -8.679688 11.09375 -8.265625 C 11.519531 -7.847656 11.734375 -7.335938 11.734375 -6.734375 Z M 11.734375 -6.734375 "/></g></g></g><g fill="#00ffff" fill-opacity="1"><g transform="translate(88.37566, 26.225806)"><g><path d="M 5.15625 -1.171875 C 5.15625 -0.273438 4.644531 0.171875 3.625 0.171875 C 2.570312 0.171875 2.046875 -0.273438 2.046875 -1.171875 L 2.046875 -15.65625 C 2.046875 -16.550781 2.570312 -17 3.625 -17 C 4.644531 -17 5.15625 -16.550781 5.15625 -15.65625 Z M 5.75 -20.546875 C 5.75 -19.941406 5.539062 -19.429688 5.125 -19.015625 C 4.71875 -18.609375 4.21875 -18.40625 3.625 -18.40625 C 3.019531 -18.40625 2.503906 -18.609375 2.078125 -19.015625 C 1.660156 -19.429688 1.453125 -19.941406 1.453125 -20.546875 C 1.453125 -21.160156 1.660156 -21.671875 2.078125 -22.078125 C 2.503906 -22.492188 3.019531 -22.703125 3.625 -22.703125 C 4.21875 -22.703125 4.71875 -22.492188 5.125 -22.078125 C 5.539062 -21.671875 5.75 -21.160156 5.75 -20.546875 Z M 5.75 -20.546875 "/></g></g></g><g fill="#004aad" fill-opacity="1"><g transform="translate(69.65481, 26.225806)"><g><path d="M 9.625 -19.53125 L 3.484375 -0.671875 L 3.484375 -0.703125 C 3.367188 -0.421875 3.210938 -0.191406 3.015625 -0.015625 C 2.816406 0.160156 2.578125 0.25 2.296875 0.25 C 2.148438 0.25 2.003906 0.234375 1.859375 0.203125 C 1.722656 0.179688 1.582031 0.148438 1.4375 0.109375 L 1.453125 0.109375 C 0.390625 -0.222656 0 -0.820312 0.28125 -1.6875 L 6.671875 -21.125 C 6.765625 -21.425781 6.925781 -21.679688 7.15625 -21.890625 C 7.394531 -22.097656 7.675781 -22.21875 8 -22.25 C 8.3125 -22.3125 8.617188 -22.351562 8.921875 -22.375 C 9.222656 -22.40625 9.457031 -22.421875 9.625 -22.421875 C 9.789062 -22.421875 10.023438 -22.40625 10.328125 -22.375 C 10.628906 -22.351562 10.9375 -22.320312 11.25 -22.28125 C 11.507812 -22.238281 11.765625 -22.097656 12.015625 -21.859375 C 12.273438 -21.617188 12.46875 -21.375 12.59375 -21.125 C 13.644531 -17.90625 14.707031 -14.664062 15.78125 -11.40625 C 16.863281 -8.144531 17.925781 -4.90625 18.96875 -1.6875 C 19.226562 -0.820312 18.835938 -0.222656 17.796875 0.109375 C 17.640625 0.148438 17.5 0.179688 17.375 0.203125 C 17.257812 0.234375 17.128906 0.25 16.984375 0.25 C 16.710938 0.25 16.46875 0.160156 16.25 -0.015625 C 16.039062 -0.191406 15.890625 -0.421875 15.796875 -0.703125 L 15.796875 -0.671875 Z M 11.734375 -6.734375 C 11.734375 -6.140625 11.519531 -5.628906 11.09375 -5.203125 C 10.675781 -4.785156 10.164062 -4.578125 9.5625 -4.578125 C 8.96875 -4.578125 8.460938 -4.785156 8.046875 -5.203125 C 7.640625 -5.628906 7.4375 -6.140625 7.4375 -6.734375 C 7.4375 -7.335938 7.640625 -7.847656 8.046875 -8.265625 C 8.460938 -8.679688 8.96875 -8.890625 9.5625 -8.890625 C 10.164062 -8.890625 10.675781 -8.679688 11.09375 -8.265625 C 11.519531 -7.847656 11.734375 -7.335938 11.734375 -6.734375 Z M 11.734375 -6.734375 "/></g></g></g><g fill="#004aad" fill-opacity="1"><g transform="translate(88.901871, 26.225806)"><g><path d="M 5.15625 -1.171875 C 5.15625 -0.273438 4.644531 0.171875 3.625 0.171875 C 2.570312 0.171875 2.046875 -0.273438 2.046875 -1.171875 L 2.046875 -15.65625 C 2.046875 -16.550781 2.570312 -17 3.625 -17 C 4.644531 -17 5.15625 -16.550781 5.15625 -15.65625 Z M 5.75 -20.546875 C 5.75 -19.941406 5.539062 -19.429688 5.125 -19.015625 C 4.71875 -18.609375 4.21875 -18.40625 3.625 -18.40625 C 3.019531 -18.40625 2.503906 -18.609375 2.078125 -19.015625 C 1.660156 -19.429688 1.453125 -19.941406 1.453125 -20.546875 C 1.453125 -21.160156 1.660156 -21.671875 2.078125 -22.078125 C 2.503906 -22.492188 3.019531 -22.703125 3.625 -22.703125 C 4.21875 -22.703125 4.71875 -22.492188 5.125 -22.078125 C 5.539062 -21.671875 5.75 -21.160156 5.75 -20.546875 Z M 5.75 -20.546875 "/></g></g></g><g fill="#ffffff" fill-opacity="1"><g transform="translate(1.330644, 26.567424)"><g><path d="M 9.53125 -17.453125 L 7.78125 -17.453125 C 7.5625 -17.398438 7.390625 -17.34375 7.265625 -17.28125 L 7.265625 -12.265625 L 7.28125 -7.21875 L 7.265625 -7.21875 L 7.265625 -3.140625 C 7.265625 -2.085938 6.945312 -1.289062 6.3125 -0.75 C 5.675781 -0.21875 4.921875 0.046875 4.046875 0.046875 C 3.117188 0.046875 2.335938 -0.21875 1.703125 -0.75 C 1.066406 -1.289062 0.75 -2.085938 0.75 -3.140625 L 0.734375 -20.4375 C 0.734375 -20.90625 0.8125 -21.53125 0.96875 -22.3125 C 1.125 -23.09375 1.488281 -23.582031 2.0625 -23.78125 C 2.632812 -23.988281 3.453125 -24.09375 4.515625 -24.09375 L 17.109375 -24.09375 C 18.316406 -24.15625 19.722656 -23.222656 21.328125 -21.296875 C 24.273438 -17.578125 25.722656 -14.832031 25.671875 -13.0625 L 25.6875 -3.359375 C 25.6875 -2.304688 25.359375 -1.507812 24.703125 -0.96875 C 24.054688 -0.4375 23.257812 -0.128906 22.3125 -0.046875 C 21.332031 -0.078125 20.519531 -0.363281 19.875 -0.90625 C 19.226562 -1.457031 18.90625 -2.257812 18.90625 -3.3125 C 18.925781 -6.9375 18.9375 -10.109375 18.9375 -12.828125 L 16.203125 -16.90625 L 16.203125 -3.28125 C 16.203125 -2.1875 15.867188 -1.363281 15.203125 -0.8125 C 14.535156 -0.257812 13.757812 0.015625 12.875 0.015625 C 11.96875 0.015625 11.179688 -0.257812 10.515625 -0.8125 C 9.859375 -1.363281 9.53125 -2.1875 9.53125 -3.28125 Z M 9.53125 -17.453125 "/></g></g></g><g fill="#ffffff" fill-opacity="1"><g transform="translate(27.214895, 25.454523)"><g><path d="M 5.359375 -13.703125 C 5.179688 -13.523438 5.09375 -13.3125 5.09375 -13.0625 L 5.09375 -11.390625 L 15.25 -11.390625 C 15.394531 -11.390625 15.523438 -11.332031 15.640625 -11.21875 C 15.753906 -11.113281 15.8125 -10.984375 15.8125 -10.828125 L 15.8125 -8.21875 C 15.8125 -8.070312 15.753906 -7.941406 15.640625 -7.828125 C 15.523438 -7.710938 15.394531 -7.65625 15.25 -7.65625 L 5.09375 -7.65625 L 5.09375 -5.734375 C 5.09375 -5.609375 5.128906 -5.484375 5.203125 -5.359375 L 6.53125 -3.921875 C 6.707031 -3.742188 6.921875 -3.65625 7.171875 -3.65625 L 17.09375 -3.65625 C 17.238281 -3.65625 17.367188 -3.597656 17.484375 -3.484375 C 17.597656 -3.378906 17.65625 -3.25 17.65625 -3.09375 L 17.65625 -0.5625 C 17.65625 -0.414062 17.597656 -0.285156 17.484375 -0.171875 C 17.367188 -0.0546875 17.238281 0 17.09375 0 L 5.703125 0 C 5.316406 0 4.988281 -0.140625 4.71875 -0.421875 L 1.578125 -3.46875 C 1.273438 -3.769531 1.125 -4.148438 1.125 -4.609375 L 1.125 -14.34375 C 1.125 -14.539062 1.175781 -14.726562 1.28125 -14.90625 C 1.382812 -15.082031 1.484375 -15.21875 1.578125 -15.3125 L 4.71875 -18.421875 C 5.019531 -18.710938 5.382812 -18.859375 5.8125 -18.859375 L 17.09375 -18.859375 C 17.238281 -18.859375 17.367188 -18.800781 17.484375 -18.6875 C 17.597656 -18.582031 17.65625 -18.453125 17.65625 -18.296875 L 17.65625 -15.703125 C 17.65625 -15.546875 17.597656 -15.410156 17.484375 -15.296875 C 17.367188 -15.179688 17.238281 -15.125 17.09375 -15.125 L 7.125 -15.125 C 6.957031 -15.125 6.769531 -15.023438 6.5625 -14.828125 Z M 5.359375 -13.703125 "/></g></g></g><g fill="#ffffff" fill-opacity="1"><g transform="translate(46.151779, 24.411289)"><g><path d="M 21.8125 -7.171875 C 20.632812 -6.015625 19.21875 -5.4375 17.5625 -5.4375 L 7.78125 -5.4375 C 7.570312 -5.4375 7.394531 -5.398438 7.25 -5.328125 C 7.101562 -5.265625 6.957031 -5.171875 6.8125 -5.046875 C 6.738281 -4.972656 6.675781 -4.898438 6.625 -4.828125 C 6.582031 -4.753906 6.546875 -4.679688 6.515625 -4.609375 C 6.492188 -4.535156 6.472656 -4.453125 6.453125 -4.359375 C 6.429688 -4.265625 6.421875 -4.171875 6.421875 -4.078125 C 6.421875 -4.023438 6.425781 -3.972656 6.4375 -3.921875 C 6.445312 -3.878906 6.457031 -3.832031 6.46875 -3.78125 C 6.476562 -3.726562 6.488281 -3.675781 6.5 -3.625 C 6.507812 -3.582031 6.523438 -3.539062 6.546875 -3.5 C 6.578125 -3.46875 6.601562 -3.425781 6.625 -3.375 C 6.65625 -3.332031 6.679688 -3.289062 6.703125 -3.25 C 6.734375 -3.21875 6.769531 -3.171875 6.8125 -3.109375 C 7.082031 -2.859375 7.40625 -2.734375 7.78125 -2.734375 L 22.359375 -2.734375 L 22.359375 0.6875 L 7.78125 0.6875 C 7.519531 0.6875 7.257812 0.664062 7 0.625 C 6.75 0.59375 6.503906 0.539062 6.265625 0.46875 C 6.023438 0.394531 5.789062 0.300781 5.5625 0.1875 C 5.34375 0.0820312 5.132812 -0.0390625 4.9375 -0.1875 C 4.738281 -0.332031 4.546875 -0.5 4.359375 -0.6875 C 3.898438 -1.144531 3.554688 -1.660156 3.328125 -2.234375 C 3.097656 -2.804688 2.984375 -3.421875 2.984375 -4.078125 C 2.984375 -5.398438 3.441406 -6.53125 4.359375 -7.46875 C 5.316406 -8.40625 6.457031 -8.875 7.78125 -8.875 L 17.5625 -8.875 C 17.9375 -8.875 18.269531 -8.929688 18.5625 -9.046875 C 18.851562 -9.171875 19.117188 -9.363281 19.359375 -9.625 C 19.640625 -9.882812 19.835938 -10.160156 19.953125 -10.453125 C 20.066406 -10.742188 20.125 -11.070312 20.125 -11.4375 L 20.125 -12.65625 C 20.125 -13.375 19.867188 -13.984375 19.359375 -14.484375 C 18.859375 -14.992188 18.257812 -15.25 17.5625 -15.25 L 5.328125 -15.25 C 4.609375 -15.25 4 -14.992188 3.5 -14.484375 C 3 -14.003906 2.75 -13.394531 2.75 -12.65625 L 2.734375 0 L 2.734375 0.6875 L -0.6875 0.6875 L -0.6875 -12.65625 C -0.6875 -14.3125 -0.109375 -15.726562 1.046875 -16.90625 C 2.242188 -18.082031 3.671875 -18.671875 5.328125 -18.671875 L 17.5625 -18.671875 C 19.21875 -18.671875 20.632812 -18.082031 21.8125 -16.90625 C 22.988281 -15.726562 23.578125 -14.3125 23.578125 -12.65625 L 23.578125 -11.4375 C 23.578125 -9.789062 22.988281 -8.367188 21.8125 -7.171875 Z M 21.8125 -7.171875 "/></g></g></g></svg>